<svg id="visual" viewBox="0 0 900 600" width="900" height="600" xmlns="http://www.w3.org/2000/svg" xmlns:xlink="http://www.w3.org/1999/xlink" version="1.1"><rect x="0" y="0" width="900" height="600" fill="#001220"></rect><path d="M0 465L21.5 471.2C43 477.3 86 489.7 128.8 494.2C171.7 498.7 214.3 495.3 257.2 488.3C300 481.3 343 470.7 385.8 466C428.7 461.3 471.3 462.7 514.2 464.3C557 466 600 468 642.8 475.7C685.7 483.3 728.3 496.7 771.2 495C814 493.3 857 476.7 878.5 468.3L900 460L900 601L878.5 601C857 601 814 601 771.2 601C728.3 601 685.7 601 642.8 601C600 601 557 601 514.2 601C471.3 601 428.7 601 385.8 601C343 601 300 601 257.2 601C214.3 601 171.7 601 128.8 601C86 601 43 601 21.5 601L0 601Z" fill="#fa7268"></path><path d="M0 501L21.5 500C43 499 86 497 128.8 500.2C171.7 503.3 214.3 511.7 257.2 515.7C300 519.7 343 519.3 385.8 515.8C428.7 512.3 471.3 505.7 514.2 507.3C557 509 600 519 642.8 517.5C685.7 516 728.3 503 771.2 495.8C814 488.7 857 487.3 878.5 486.7L900 486L900 601L878.5 601C857 601 814 601 771.2 601C728.3 601 685.7 601 642.8 601C600 601 557 601 514.2 601C471.3 601 428.7 601 385.8 601C343 601 300 601 257.2 601C214.3 601 171.7 601 128.8 601C86 601 43 601 21.5 601L0 601Z" fill="#eb5967"></path><path d="M0 545L21.5 540.3C43 535.7 86 526.3 128.8 524.2C171.7 522 214.3 527 257.2 527C300 527 343 522 385.8 523.5C428.7 525 471.3 533 514.2 535.7C557 538.3 600 535.7 642.8 537.7C685.7 539.7 728.3 546.3 771.2 543.8C814 541.3 857 529.7 878.5 523.8L900 518L900 601L878.5 601C857 601 814 601 771.2 601C728.3 601 685.7 601 642.8 601C600 601 557 601 514.2 601C471.3 601 428.7 601 385.8 601C343 601 300 601 257.2 601C214.3 601 171.7 601 128.8 601C86 601 43 601 21.5 601L0 601Z" fill="#da3f67"></path><path d="M0 565L21.5 563.2C43 561.3 86 557.7 128.8 556.8C171.7 556 214.3 558 257.2 558.7C300 559.3 343 558.7 385.8 556.2C428.7 553.7 471.3 549.3 514.2 551.7C557 554 600 563 642.8 568.7C685.7 574.3 728.3 576.7 771.2 577.3C814 578 857 577 878.5 576.5L900 576L900 601L878.5 601C857 601 814 601 771.2 601C728.3 601 685.7 601 642.8 601C600 601 557 601 514.2 601C471.3 601 428.7 601 385.8 601C343 601 300 601 257.2 601C214.3 601 171.7 601 128.8 601C86 601 43 601 21.5 601L0 601Z" fill="#c62368"></path></svg>